<svg width="18" height="18" viewBox="0 0 18 18" fill="none" xmlns="http://www.w3.org/2000/svg">
<path d="M5.46967 10.7197C5.76256 10.4268 6.23744 10.4268 6.53033 10.7197C6.82322 11.0126 6.82322 11.4874 6.53033 11.7803L3.53033 14.7803C3.23744 15.0732 2.76256 15.0732 2.46967 14.7803C2.17678 14.4874 2.17678 14.0126 2.46967 13.7197L5.46967 10.7197Z" fill="#5E6278"/>
<path fill-rule="evenodd" clip-rule="evenodd" d="M9.75 3C6.8505 3 4.5 5.3505 4.5 8.25C4.5 11.1495 6.8505 13.5 9.75 13.5C12.6495 13.5 15 11.1495 15 8.25C15 5.3505 12.6495 3 9.75 3ZM9.75 12C7.67893 12 6 10.321 6 8.24998C6 6.17891 7.67893 4.49998 9.75 4.49998C11.8211 4.49998 13.5 6.17891 13.5 8.24998C13.5 10.321 11.8211 12 9.75 12Z" fill="#5E6278"/>
</svg>
